<svg width="39" height="131" viewBox="0 0 39 131" fill="none" xmlns="http://www.w3.org/2000/svg">
<path d="M25.5 28C27.3618 31.1197 31.0011 39.7923 26.5328 49.5256C20.9475 61.6923 13.3311 77.6026 25.5173 101" stroke="#679949" stroke-width="0.5" stroke-linecap="round"/>
<path d="M0.2014 40.2159C19.7101 33.3416 20.9976 43.6075 21.5711 45.7755C19.4929 44.0232 14.8031 41.5614 8.1482 43.787C8.1482 43.787 17.9837 41.3687 24.84 51.0307C24.3853 51.3983 19.6108 48.399 19.6108 48.399C8.70515 56.7007 0.2014 40.2159 0.2014 40.2159Z" fill="#76B252"/>
<path d="M38.8916 76.8411C32.165 68.1719 28.2128 72.6474 27.2398 73.5084C28.7693 73.2624 31.7327 73.4081 34.0664 76.3096C34.0664 76.3096 30.3321 72.4325 24.0159 75.0729C24.1049 75.3727 27.2828 75.2899 27.2828 75.2899C29.5838 82.2354 38.891 76.8415 38.891 76.8415L38.8916 76.8411Z" fill="#76B252"/>
<path d="M6.9987 78.6721C12.2376 66.3203 18.4711 70.3945 19.9263 71.1123C18.004 71.2952 14.4846 72.3868 12.6321 76.5463C12.6321 76.5463 15.849 70.7972 24.3232 71.9651C24.3149 72.3477 20.462 73.2352 20.462 73.2352C19.9823 82.1734 6.99956 78.6723 6.99956 78.6723L6.9987 78.6721Z" fill="#76B252"/>
<path d="M38.547 10.966C30.0673 4.467 27.6157 9.53622 26.9485 10.5605C28.2902 9.9789 31.0545 9.43011 33.9683 11.5863C33.9683 11.5863 29.5082 8.84735 24.397 12.7578C24.5581 13.0157 27.4592 12.2052 27.4592 12.2052C31.4125 18.1249 38.5465 10.9664 38.5465 10.9664L38.547 10.966Z" fill="#D3A45F"/>
<rect x="22" width="4" height="131" rx="1" fill="#76B252"/>
</svg>
