<svg width="105" height="117" viewBox="0 0 105 117" fill="none" xmlns="http://www.w3.org/2000/svg">
<path d="M26 1.38525C56.08 -1.02089 54.0186 14.4813 54.0081 17.8731C51.7417 14.4996 46.0638 9.06713 35.8478 9.71339C35.8478 9.71339 50.6176 10.0307 56.6297 26.8306C55.8503 27.1896 50.2559 20.9386 50.2559 20.9386C31.7575 28.798 26 1.38525 26 1.38525Z" fill="#76B252"/>
<path d="M72.9996 0C52.1864 2.69989 55.8236 12.9511 56.3198 15.2567C57.376 12.6352 60.4545 8.11925 67.4992 7.08655C67.4992 7.08655 57.4961 9.43264 55.8276 21.7297C56.4098 21.8615 59.3147 16.8025 59.3147 16.8025C73.0335 19.4828 72.9996 0.0012909 72.9996 0.0012909V0Z" fill="#76B252"/>
<path d="M59.7091 20.0156H2.2998L17.0582 108.259C25.7908 112.961 38.6073 115.94 52.8949 115.94C67.1825 115.94 79.3222 113.125 88.0313 108.641L102.854 20.0215H59.7091V20.0156Z" fill="#E9BC98"/>
<path d="M52.8947 116.347C39.1132 116.347 25.979 113.532 16.8697 108.625C16.7579 108.554 16.6814 108.454 16.652 108.325L1.89364 20.0816C1.87598 19.964 1.9054 19.8347 1.9819 19.7524C2.0584 19.6525 2.17021 19.5938 2.29378 19.5938H102.848C102.966 19.5938 103.084 19.6525 103.154 19.7524C103.231 19.8347 103.266 19.9581 103.243 20.0816L88.4254 108.695C88.4019 108.825 88.3254 108.936 88.2077 108.995C79.1456 113.661 66.2761 116.341 52.8888 116.341L52.8947 116.347ZM17.4288 107.984C26.4203 112.78 39.3368 115.519 52.8947 115.519C66.4527 115.519 78.7219 112.915 87.6663 108.36L102.378 20.4342H2.77631L17.4229 107.984H17.4288Z" fill="#EBBEA0"/>
<g style="mix-blend-mode:multiply" opacity="0.7">
<path d="M59.7091 20.0156H2.2998L17.0582 108.259C25.7908 112.961 38.6073 115.94 52.8949 115.94C67.1825 115.94 79.3222 113.125 88.0313 108.641L102.854 20.0215H59.7091V20.0156ZM57.9497 106.414C50.7529 117.333 26.7088 109.058 26.7088 109.058C18.594 106.725 17.6702 99.7022 17.6702 99.7022C17.6702 99.7022 9.39653 47.908 8.63155 43.3827C7.86067 38.8574 11.5444 38.54 11.5444 38.54C18.1292 44.1643 22.1071 40.8791 25.4789 39.639C28.8507 38.3931 29.1567 38.54 35.4414 40.4089C41.7202 42.2602 47.234 38.5459 47.234 38.5459C51.9769 42.3013 54.1247 39.8036 59.4855 37.9229C64.8463 36.0599 66.2822 43.0771 66.2822 43.0771C66.2822 43.0771 65.1464 95.5001 57.9497 106.426V106.414Z" fill="#EDC8B5"/>
</g>
<g style="mix-blend-mode:multiply" opacity="0.7">
<path d="M2.2998 20.0156L5.33621 38.1756C5.45391 37.9053 5.60102 37.6643 5.7599 37.4293C6.21301 36.7945 6.73085 36.2303 7.54291 36.0952C9.6731 35.7308 11.0619 35.0491 12.48 33.38C12.6624 33.1684 12.9449 33.2331 13.1332 33.38C17.1759 36.5947 24.4962 37.8759 28.1034 33.38C28.38 33.0332 28.8802 33.3388 28.886 33.7032C28.9684 36.0011 35.5414 37.0649 36.942 37.0002C39.1428 36.9121 40.7669 36.2362 42.3439 34.7141C42.8324 34.2557 43.2737 33.7972 43.9269 33.6209C44.5859 33.4387 45.3862 34.1381 45.8452 34.479C47.0104 35.3429 48.2696 35.9306 49.6702 36.2891C53.5422 37.2765 57.2788 36.7887 60.38 34.0852C60.6036 33.8913 60.939 33.9148 61.1038 34.1851C62.722 36.9591 66.4057 38.111 69.3951 37.3999C71.4076 36.9238 73.32 36.2127 75.4208 36.3185C78.3689 36.4654 80.1637 39.3687 80.8051 41.9957C81.9585 46.6973 81.6466 51.8221 81.2935 56.6001C80.8522 62.6299 80.046 68.6363 79.6577 74.6661C79.6577 74.7307 79.6341 74.7778 79.6165 74.8248C79.4811 76.4116 79.3105 77.9984 79.2281 79.5558C79.0398 83.3523 78.8691 87.1548 78.4396 90.9396C77.7334 97.0047 76.48 103.246 72.2902 107.877C69.3068 111.168 65.3995 113.842 61.1155 115.605C71.6959 114.736 81.0758 112.22 88.0254 108.647L102.849 20.0274H2.2998V20.0156Z" fill="#EBBEA1"/>
</g>
<path d="M102.883 18.4141H1.86361C1.08685 19.1076 0.621974 19.9597 0.416016 20.9118C1.11039 24.9787 1.81653 29.0456 2.6639 33.0714C3.81138 33.5592 5.0589 33.8236 6.37115 33.8236C9.58998 33.8236 12.4381 32.2427 14.227 29.8037C16.0218 32.2486 18.864 33.8236 22.0769 33.8236C25.2899 33.8236 28.1439 32.2427 29.9328 29.8096C31.7275 32.2486 34.5698 33.8236 37.7886 33.8236C41.0074 33.8236 43.8496 32.2427 45.6444 29.8037C47.4392 32.2486 50.2755 33.8236 53.5002 33.8236C56.725 33.8236 59.5554 32.2427 61.3502 29.8037C63.145 32.2486 65.9931 33.8236 69.206 33.8236C72.419 33.8236 75.273 32.2427 77.0618 29.8096C78.8507 32.2486 81.6989 33.8236 84.9177 33.8236C88.1365 33.8236 90.9787 32.2427 92.7676 29.8037C94.5624 32.2486 97.4105 33.8236 100.623 33.8236C101.041 33.8236 101.453 33.7884 101.865 33.7414C102.971 29.9213 103.678 26.0013 104.401 22.0813C104.237 20.6414 103.836 19.278 102.895 18.4199L102.883 18.4141Z" fill="#E9BC98"/>
<path d="M100.618 34.2382C97.5521 34.2382 94.7216 32.8689 92.7621 30.4711C90.8143 32.863 87.9779 34.2382 84.9121 34.2382C81.8463 34.2382 79.0158 32.8689 77.0563 30.4711C75.1026 32.863 72.2663 34.2382 69.2004 34.2382C66.1346 34.2382 63.3042 32.8689 61.3446 30.4711C59.3968 32.863 56.5605 34.2382 53.4947 34.2382C50.4288 34.2382 47.5925 32.8689 45.6388 30.4711C43.6852 32.863 40.8488 34.2382 37.783 34.2382C34.7172 34.2382 31.875 32.8689 29.9272 30.4711C27.9794 32.863 25.1431 34.2382 22.0714 34.2382C18.9996 34.2382 16.1751 32.8689 14.2214 30.4711C12.2677 32.863 9.43729 34.2382 6.36558 34.2382C5.04156 34.2382 3.74108 33.9738 2.50533 33.4625C2.38176 33.4096 2.29349 33.2979 2.25818 33.1569C1.37551 28.9489 0.634057 24.6704 0.00441339 20.9797C-0.00147113 20.9268 -0.00147113 20.8739 0.00441339 20.8151C0.245679 19.7396 0.781171 18.8228 1.58735 18.1058C1.65796 18.0353 1.75212 18 1.85804 18H102.878C102.978 18 103.072 18.0353 103.148 18.1058C104.043 18.9168 104.572 20.198 104.796 22.0258C104.796 22.0728 104.796 22.108 104.784 22.1492L104.714 22.5371C104.031 26.2749 103.319 30.136 102.242 33.8562C102.195 34.009 102.065 34.1266 101.901 34.1442C101.436 34.2088 101.012 34.2382 100.612 34.2382H100.618ZM92.7621 29.3955C92.8915 29.3955 93.0092 29.4543 93.0857 29.5484C94.8864 32.005 97.6344 33.4096 100.618 33.4096C100.906 33.4096 101.212 33.3861 101.542 33.3567C102.566 29.7658 103.254 26.0163 103.919 22.3843L103.978 22.061C103.796 20.5624 103.384 19.5045 102.719 18.8287H2.01692C1.42258 19.3987 1.02243 20.104 0.822361 20.9267C1.43435 24.5235 2.15815 28.6844 3.00552 32.7748C4.08239 33.198 5.2181 33.4096 6.35969 33.4096C9.34903 33.4096 12.0912 32.005 13.8919 29.5484C13.9684 29.4543 14.0861 29.3955 14.2155 29.3955C14.345 29.3955 14.4627 29.4543 14.5392 29.5484C16.334 32.005 19.082 33.4096 22.0655 33.4096C25.0489 33.4096 27.797 32.005 29.5976 29.5484C29.7506 29.3485 30.0978 29.3485 30.2508 29.5484C32.0515 32.005 34.7937 33.4096 37.7771 33.4096C40.7606 33.4096 43.5028 32.005 45.3034 29.5484C45.3858 29.4543 45.4976 29.3955 45.633 29.3955C45.7565 29.3955 45.8742 29.4543 45.9566 29.5484C47.7573 32.005 50.5053 33.4096 53.4888 33.4096C56.4722 33.4096 59.2144 32.005 61.021 29.5484C61.0916 29.4543 61.2093 29.3955 61.3387 29.3955C61.4682 29.3955 61.5918 29.4543 61.6683 29.5484C63.463 32.005 66.2111 33.4096 69.1946 33.4096C72.178 33.4096 74.9202 32.005 76.7268 29.5484C76.8032 29.4602 76.9209 29.3955 77.0504 29.3955C77.174 29.3955 77.3034 29.4602 77.3799 29.5484C79.1747 32.005 81.9228 33.4096 84.9062 33.4096C87.8897 33.4096 90.6319 32.005 92.4325 29.5484C92.509 29.4543 92.6267 29.3955 92.7562 29.3955H92.7621Z" fill="#EBBEA0"/>
<g style="mix-blend-mode:multiply" opacity="0.7">
<path d="M102.884 18.4141H68.5534C69.742 18.6903 70.8895 19.0723 71.8605 19.7893C74.7615 21.9226 71.9075 28.0054 69.0241 28.8223C66.0348 29.6568 63.0101 28.0935 60.98 25.8015C57.361 30.4502 50.5585 30.0271 46.6865 25.3901C42.1966 29.6803 35.553 32.0135 31.1573 27.4236C29.2095 29.1925 26.7144 30.3738 24.1782 30.6265C19.7472 31.0732 16.9226 28.8458 14.863 25.537C13.0388 28.0818 10.4438 30.1799 7.3485 30.5677C5.23596 30.8322 3.40588 30.2798 1.89355 29.2043C2.14659 30.4972 2.39962 31.7902 2.66442 33.0714C3.81191 33.5592 5.05942 33.8236 6.37167 33.8236C9.5905 33.8236 12.4386 32.2427 14.2275 29.8037C16.0223 32.2486 18.8645 33.8236 22.0774 33.8236C25.2904 33.8236 28.1444 32.2427 29.9333 29.8096C31.7281 32.2486 34.5703 33.8236 37.7891 33.8236C41.0079 33.8236 43.8502 32.2427 45.6449 29.8037C47.4397 32.2486 50.2761 33.8236 53.5008 33.8236C56.7255 33.8236 59.5559 32.2427 61.3507 29.8037C63.1455 32.2486 65.9936 33.8236 69.2065 33.8236C72.4195 33.8236 75.2735 32.2427 77.0624 29.8096C78.8513 32.2486 81.6994 33.8236 84.9182 33.8236C88.137 33.8236 90.9793 32.2427 92.7681 29.8037C94.5629 32.2486 97.411 33.8236 100.624 33.8236C101.042 33.8236 101.454 33.7884 101.866 33.7414C102.972 29.9213 103.678 26.0013 104.402 22.0813C104.237 20.6414 103.837 19.278 102.895 18.4199L102.884 18.4141Z" fill="#EDC8B5"/>
</g>
<g style="mix-blend-mode:multiply" opacity="0.7">
<path d="M102.883 18.4141H75.338C77.4682 18.8431 79.5925 19.3074 81.7462 19.6012C84.2412 19.948 87.1717 19.8598 89.5608 20.7414C90.5436 21.1057 91.0379 22.1225 90.9084 23.1509C90.3788 27.3942 87.8426 30.5795 83.441 30.3092C81.5756 30.2034 78.9158 29.0221 77.1739 27.3706C75.4439 29.7626 73.0077 31.5904 69.9478 31.7138C66.5171 31.8607 63.5336 30.3033 61.1445 27.976C57.0665 32.8363 49.146 33.4475 45.6565 27.8467C44.0853 29.5687 42.114 30.8969 39.8308 31.3141C36.0824 32.0135 33.3519 30.6089 30.5333 28.546C26.061 33.0067 18.3641 34.2115 14.5391 28.7694C11.4321 32.0723 6.64212 34.3173 2.63477 32.9656C2.63477 33.0008 2.64654 33.0361 2.6583 33.0772C3.80579 33.565 5.0533 33.8295 6.36555 33.8295C9.58438 33.8295 12.4325 32.2486 14.2214 29.8096C16.0162 32.2545 18.8584 33.8295 22.0713 33.8295C25.2843 33.8295 28.1383 32.2486 29.9272 29.8155C31.7219 32.2545 34.5642 33.8295 37.783 33.8295C41.0018 33.8295 43.844 32.2486 45.6388 29.8096C47.4336 32.2545 50.2699 33.8295 53.4946 33.8295C56.7194 33.8295 59.5498 32.2486 61.3446 29.8096C63.1394 32.2545 65.9875 33.8295 69.2004 33.8295C72.4134 33.8295 75.2674 32.2486 77.0563 29.8155C78.8451 32.2545 81.6933 33.8295 84.9121 33.8295C88.1309 33.8295 90.9731 32.2486 92.762 29.8096C94.5568 32.2545 97.4049 33.8295 100.618 33.8295C101.036 33.8295 101.448 33.7942 101.859 33.7472C102.966 29.9272 103.672 26.0072 104.396 22.0872C104.231 20.6473 103.831 19.2839 102.889 18.4258L102.883 18.4141Z" fill="#EDC8B5"/>
</g>
<g style="mix-blend-mode:multiply">
<path d="M27.5205 29.7444C26.4495 30.2028 25.3138 30.5201 24.1722 30.6318C20.465 31.002 17.8817 29.5034 15.9339 27.0703C15.6985 27.4053 15.4396 27.7285 15.1748 28.0459C18.0759 32.3303 23.419 32.248 27.5205 29.7444Z" fill="#FDC73D"/>
</g>
<g style="mix-blend-mode:color-dodge" opacity="0.4">
<path d="M3.25297 27.0665L2.29968 22.5882C2.29968 22.5882 0.975665 19.9024 4.99479 19.5498C4.99479 19.5498 12.3446 18.727 11.5443 21.5362C10.7381 24.3454 5.64797 31.6565 3.25297 27.0724V27.0665Z" fill="white"/>
</g>
<g style="mix-blend-mode:color-dodge" opacity="0.4">
<path d="M20.4649 20.8496C19.9059 20.6028 19.2057 20.7086 18.6819 20.9848C18.3759 21.1435 18.1464 21.3551 17.9405 21.596C17.811 21.6783 17.6992 21.79 17.611 21.9839C17.5403 22.1308 17.4991 22.2836 17.4697 22.4364C17.3991 22.6891 17.352 22.9477 17.3579 23.2298C17.3697 23.9527 17.6757 24.511 18.2759 24.8754C18.6761 25.1164 19.1762 25.0693 19.6352 24.9048C20.0648 24.8578 20.4944 24.7167 20.8416 24.464C22.195 23.5061 21.9184 21.502 20.4649 20.8496Z" fill="white"/>
</g>
<g style="mix-blend-mode:color-dodge" opacity="0.4">
<path d="M20.7181 46.3209C19.0528 44.1053 15.4103 42.8476 13.5214 45.0456C11.2499 47.6902 13.7509 53.0089 16.9756 53.3851C20.5828 53.8023 22.8248 49.1066 20.724 46.3209H20.7181Z" fill="white"/>
</g>
<g style="mix-blend-mode:color-dodge" opacity="0.4">
<path d="M24.2902 61.6277C24.2431 61.4925 24.2137 61.3397 24.1666 61.2045C23.4016 58.9301 22.213 57.0319 19.7238 56.6205C18.3233 56.3795 16.6403 56.2208 15.2692 56.7086C13.8628 57.2082 13.4509 58.1661 13.2803 59.3533C14.9868 71.2249 17.4347 87.9039 19.4296 94.4509C19.8415 95.7967 21.5245 103.789 24.2961 100.751C25.526 99.3935 25.3141 95.9084 25.4789 94.2687C25.8555 90.3898 25.9379 86.6462 25.5671 82.7615C24.8904 75.7325 24.8904 68.6742 24.2902 61.6277Z" fill="white"/>
</g>
<path d="M93.8926 30.7942C87.166 22.125 83.2138 26.6006 82.2408 27.4615C83.7702 27.2155 86.7337 27.3612 89.0674 30.2627C89.0674 30.2627 85.3331 26.3857 79.0169 29.026C79.1059 29.3258 82.2838 29.243 82.2838 29.243C84.5848 36.1886 93.892 30.7946 93.892 30.7946L93.8926 30.7942Z" fill="#76B252"/>
<path d="M53.9997 31.6252C59.2386 19.2734 65.4721 23.3476 66.9273 24.0654C65.005 24.2483 61.4856 25.3399 59.6331 29.4995C59.6331 29.4995 62.85 23.7503 71.3241 24.9182C71.3158 25.3008 67.463 26.1883 67.463 26.1883C66.9833 35.1266 54.0005 31.6254 54.0005 31.6254L53.9997 31.6252Z" fill="#76B252"/>
<path d="M73.4694 10.4907C73.5084 10.6227 73.3436 10.64 73.2506 10.6287C71.8984 10.6722 70.1548 12.0396 69.2985 13.0412C68.6127 13.8805 67.9038 14.7886 67.2859 15.6903C66.4181 16.9355 65.4771 18.2532 64.1678 19.0754C63.781 19.2639 63.3657 19.4777 62.9378 19.6063C63.1221 19.6955 63.3067 19.7836 63.4912 19.8717C65.1747 20.7092 67.068 21.4382 68.7929 22.2493C70.0309 22.8539 71.1945 23.5953 72.4154 24.2339C74.032 25.1718 75.7067 26.0207 77.2639 27.0563C78.6807 27.9542 80.1608 29.1795 81.465 30.3098C83.6865 32.1827 85.6773 34.4178 86.9814 37.0213C89.4111 41.7031 90.0132 44.9414 88.2731 50.0268C88.0264 50.828 87.4778 51.5222 86.9514 52.1677C85.5589 54.1373 83.9595 55.7821 81.6307 56.6187C75.7653 58.9107 68.5343 57.4927 64.4134 52.5953C62.4308 50.5261 61.308 47.404 62.4854 44.6493C63.0515 43.1812 63.7705 41.7699 64.9088 40.6552C65.2081 40.3535 65.5069 40.0493 65.8162 39.7571C66.5133 39.1107 67.4054 38.7439 68.2924 38.4303C70.754 37.4439 73.5319 38.3462 75.3726 40.1637C77.5448 41.9859 77.8556 45.4235 75.3477 47.0909C74.7618 47.459 74.1242 47.9645 73.3918 47.8763C73.2703 47.8517 73.0739 47.799 73.0654 47.6558C73.0048 47.5532 73.135 47.4642 73.1592 47.5832C73.4003 47.6182 73.6387 47.5309 73.8541 47.4272C74.2948 47.1827 74.7136 46.8834 75.1067 46.5602C76.5061 45.5041 76.7582 43.5813 75.9675 42.0543C74.9003 40.2656 72.8873 38.959 70.7864 38.7871C69.4378 38.7531 68.1203 39.2946 66.9599 39.9328C66.0246 40.6189 65.2484 41.5817 64.5712 42.5255C64.0591 43.3011 63.7718 44.1983 63.4163 45.051C62.7176 46.903 63.1322 49.0397 64.2782 50.6324C68.1419 56.2122 75.8014 57.4995 81.7725 54.7493C83.3678 53.9821 84.5758 52.6667 85.6637 51.3089C86.148 50.735 86.673 50.1675 86.8959 49.4338C86.8993 49.4211 86.904 49.4076 86.9085 49.3952C87.6099 47.3495 87.9705 45.0988 87.562 42.9479C87.2068 41.1147 86.3115 39.4528 85.5091 37.7817C84.1498 35.1111 82.0308 32.8894 79.7063 31.0208C78.1424 29.6344 76.4294 28.4161 74.6044 27.394C71.647 25.7785 68.8258 23.9064 65.6902 22.64C64.0237 21.974 58.6886 19.2475 57.9819 17.8123C57.8826 17.4959 58.1484 17.1613 58.4755 17.1614C58.6633 17.1606 58.821 17.2676 58.9749 17.3634C59.445 17.8588 60.1048 18.1197 60.7008 18.4397C60.9408 18.5813 61.1847 18.7171 61.4307 18.849C61.7104 18.5693 62.2465 18.5663 62.5955 18.3995C64.1928 17.9704 65.3972 16.6472 66.4179 15.4078C67.2812 14.3546 68.1308 13.2796 69.0702 12.2923C69.7008 11.6338 70.4913 11.1511 71.2989 10.7366C71.8984 10.4755 72.8931 9.97364 73.4678 10.4925L73.4694 10.4907Z" fill="#76B252"/>
</svg>
